<svg xmlns="http://www.w3.org/2000/svg" xmlns:xlink="http://www.w3.org/1999/xlink" width="50" zoomAndPan="magnify" viewBox="0 0 37.5 37.499999" height="50" preserveAspectRatio="xMidYMid meet" version="1.0"><defs><clipPath id="bf8a3160be"><path d="M 0 0 L 37.007812 0 L 37.007812 37.007812 L 0 37.007812 Z M 0 0 " clip-rule="nonzero"/></clipPath><clipPath id="e7f5b34c74"><path d="M 18.503906 0 C 8.285156 0 0 8.285156 0 18.503906 C 0 28.722656 8.285156 37.007812 18.503906 37.007812 C 28.722656 37.007812 37.007812 28.722656 37.007812 18.503906 C 37.007812 8.285156 28.722656 0 18.503906 0 Z M 18.503906 0 " clip-rule="nonzero"/></clipPath><clipPath id="7a9e9d7681"><path d="M 12 13.324219 L 25 13.324219 L 25 23.683594 L 12 23.683594 Z M 12 13.324219 " clip-rule="nonzero"/></clipPath></defs><g clip-path="url(#bf8a3160be)"><g clip-path="url(#e7f5b34c74)"><path fill="#13072e" d="M 0 0 L 37.007812 0 L 37.007812 37.007812 L 0 37.007812 Z M 0 0 " fill-opacity="1" fill-rule="nonzero"/></g></g><g clip-path="url(#7a9e9d7681)"><path fill="#ffffff" d="M 19.820312 23.683594 L 25 18.503906 L 19.820312 13.324219 L 19.15625 13.988281 L 23.195312 18.03125 L 12.003906 18.03125 L 12.003906 18.972656 L 23.195312 18.972656 L 19.15625 23.019531 Z M 19.820312 23.683594 " fill-opacity="1" fill-rule="nonzero"/></g></svg>